<?xml version="1.0" encoding="utf-8"?>
<!-- Generator: Adobe Illustrator 20.0.0, SVG Export Plug-In . SVG Version: 6.00 Build 0)  -->
<svg version="1.1" id="Layer_1" xmlns="http://www.w3.org/2000/svg" xmlns:xlink="http://www.w3.org/1999/xlink" x="0px" y="0px"
	 width="500px" height="500px" viewBox="0 0 500 500" style="enable-background:new 0 0 500 500;" xml:space="preserve">
<style type="text/css">
	.st0{display:none;}
	.st1{display:inline;fill:#965C5C;}
	.st2{display:inline;fill:#BBCE4D;}
	.st3{fill:#B5BEC4;}
	.st4{fill:#455867;}
	.st5{fill:#F1575A;}
	.st6{fill:#EAECF2;stroke:#CCCCCB;stroke-miterlimit:10;}
	.st7{fill:#97A5AD;}
	.st8{fill:#99A6AE;}
	.st9{fill:#FFFFFF;}
	.st10{fill:#41585B;}
	.st11{fill:#C8C8C8;}
	.st12{fill:#4C4C4D;}
	.st13{fill:#F2C417;}
	.st14{fill:#69BF68;}
	.st15{fill:#E12948;}
	.st16{fill:#A11D21;}
	.st17{fill:none;stroke:#455867;stroke-miterlimit:10;}
	.st18{fill:#999999;}
	.st19{fill:#9EC43B;stroke:#FFFFFF;stroke-width:2;stroke-miterlimit:10;}
	.st20{fill:#5BB75B;}
	.st21{fill:#CCCCCB;}
	.st22{fill:#62BF6E;}
	.st23{fill:#7BC4EF;}
	.st24{fill:#FFFFFF;stroke:#FFFFFF;stroke-width:0.25;stroke-miterlimit:10;}
	.st25{fill:#337AB7;}
</style>
<g id="Layer_1_1_">
	<g id="Layer_2" class="st0">
		<rect x="-33" y="-26" class="st1" width="549.5" height="549.5"/>
	</g>
	<g id="Layer_3" class="st0">
		<rect y="25.9" class="st2" width="17" height="17"/>
		<rect x="18.3" y="25.9" class="st2" width="17" height="17"/>
		<rect x="36.8" y="25.9" class="st2" width="17" height="17"/>
		<rect x="55.8" y="25.9" class="st2" width="17" height="17"/>
		<rect x="74.8" y="25.9" class="st2" width="17" height="17"/>
		<rect x="92.8" y="25.9" class="st2" width="17" height="17"/>
		<rect y="44.9" class="st2" width="17" height="17"/>
		<rect x="18.3" y="44.9" class="st2" width="17" height="17"/>
		<rect x="36.8" y="44.9" class="st2" width="17" height="17"/>
		<rect x="55.8" y="44.9" class="st2" width="17" height="17"/>
		<rect x="74.8" y="44.9" class="st2" width="17" height="17"/>
		<rect x="92.8" y="44.9" class="st2" width="17" height="17"/>
		<rect x="110.6" y="44.9" class="st2" width="17" height="17"/>
		<rect x="110.6" y="25.9" class="st2" width="17" height="17"/>
	</g>
	<path class="st3" d="M14.8,14.6l-3.7-4c1-1.2,1.5-2.6,1.5-4.2C12.5,2.9,9.7,0,6.3,0S0,2.9,0,6.5S2.8,13,6.3,13
		c1.3,0,2.5-0.4,3.6-1.2l3.7,4c0.2,0.2,0.4,0.3,0.6,0.3c0.2,0,0.4-0.1,0.6-0.2C15.1,15.4,15.1,14.9,14.8,14.6z M6.3,1.7
		c2.6,0,4.6,2.1,4.6,4.8s-2.1,4.8-4.6,4.8S1.6,9.1,1.6,6.5S3.7,1.7,6.3,1.7z"/>
	<path class="st4" d="M27,22.2c1.2,0,2.2-1,2.2-2.2h-4.5C24.8,21.2,25.8,22.2,27,22.2z M34.3,15.6V9.5c0-3.4-2.3-6.2-5.6-6.9V1.8
		c0-0.9-0.8-1.6-1.7-1.6c-0.9,0-1.7,0.8-1.7,1.6v0.8c-3.2,0.8-5.6,3.5-5.6,6.9v6.1l-2.2,2.2v1.1h19v-1.1L34.3,15.6z M32,16.7H22V9.5
		c0-2.7,2.2-4.9,5-4.9s5,2.2,5,4.9V16.7z"/>
	<circle class="st5" cx="33" cy="6.9" r="3.7"/>
	<path class="st6" d="M43.3,9.1l8-8l8,8"/>
	<path class="st7" d="M70.6,5l-3.8,3.9c-0.2,0.2-0.6,0.2-0.9,0c-0.2-0.2-0.2-0.6,0-0.9l3.3-3.4l-3.3-3.4c-0.2-0.2-0.2-0.6,0-0.9
		c0.2-0.2,0.6-0.2,0.9,0l3.8,3.9c0.1,0.1,0.2,0.3,0.2,0.4C70.8,4.7,70.7,4.9,70.6,5z"/>
	<path class="st7" d="M78.4,4.9l-3.9-3.8c-0.2-0.2-0.2-0.6,0-0.9c0.2-0.2,0.6-0.2,0.9,0l3.4,3.3l3.4-3.3c0.2-0.2,0.6-0.2,0.9,0
		c0.2,0.2,0.2,0.6,0,0.9l-3.9,3.8c0,0.1-0.2,0.2-0.4,0.2C78.7,5.1,78.5,5,78.4,4.9z"/>
	<path class="st8" d="M8.4,31.2H4.5c-0.1,0-0.1,0-0.2,0.1s-0.1,0.1-0.1,0.2v1.6c0,0.1,0,0.1,0.1,0.2c0.1,0.1,0.1,0.1,0.2,0.1h3.8
		c0.1,0,0.1,0,0.2-0.1c0.1-0.1,0.1-0.1,0.1-0.2v-1.6c0-0.1,0-0.1-0.1-0.2C8.5,31.2,8.4,31.2,8.4,31.2z M6.2,29.1h2.2
		c0.1,0,0.1,0,0.2-0.1c0.1-0.1,0.1-0.1,0.1-0.2v-1.6c0-0.1,0-0.1-0.1-0.2s-0.1-0.1-0.2-0.1H6.2C6.1,26.9,6,27,6,27
		c-0.1,0.1-0.1,0.1-0.1,0.2v1.6c0,0.1,0,0.1,0.1,0.2C6,29,6.1,29.1,6.2,29.1z M16,38.9c0-0.1-0.1-0.2-0.3-0.2h-1.6V27.2
		c0-0.1,0-0.1-0.1-0.2s-0.1-0.1-0.2-0.1h-1.6c-0.1,0-0.1,0-0.2,0.1c-0.1,0.1-0.1,0.1-0.1,0.2v11.5h-1.6c-0.1,0-0.1,0-0.2,0.1
		C10,38.8,10,38.9,10,39s0,0.1,0.1,0.2l2.7,2.7c0.1,0,0.1,0.1,0.2,0.1c0.1,0,0.1,0,0.2-0.1l2.7-2.7C16,39.1,16,39,16,38.9z
		 M8.4,39.8H1.3c-0.1,0-0.1,0-0.2,0.1C1,39.9,1,40,1,40.1v1.6c0,0.1,0,0.1,0.1,0.2S1.2,42,1.3,42h7.1c0.1,0,0.1,0,0.2-0.1
		c0.1-0.1,0.1-0.1,0.1-0.2v-1.6c0-0.1,0-0.1-0.1-0.2C8.5,39.8,8.4,39.8,8.4,39.8z M8.4,35.5H2.9c-0.1,0-0.1,0-0.2,0.1
		c-0.1,0.1-0.1,0.1-0.1,0.2v1.6c0,0.1,0,0.1,0.1,0.2c0.1,0.1,0.1,0.1,0.2,0.1h5.5c0.1,0,0.1,0,0.2-0.1c0.1-0.1,0.1-0.1,0.1-0.2v-1.6
		c0-0.1,0-0.1-0.1-0.2C8.5,35.5,8.4,35.5,8.4,35.5z"/>
	<path class="st8" d="M30.8,35.5H27c-0.1,0-0.1,0-0.2,0.1s-0.1,0.1-0.1,0.2v1.6c0,0.1,0,0.1,0.1,0.2c0.1,0.1,0.1,0.1,0.2,0.1h3.8
		c0.1,0,0.1,0,0.2-0.1s0.1-0.1,0.1-0.2v-1.6c0-0.1,0-0.1-0.1-0.2C30.9,35.5,30.9,35.5,30.8,35.5z M29.1,39.8H27
		c-0.1,0-0.1,0-0.2,0.1s-0.1,0.1-0.1,0.2v1.6c0,0.1,0,0.1,0.1,0.2S26.9,42,27,42h2.2c0.1,0,0.1,0,0.2-0.1s0.1-0.1,0.1-0.2v-1.6
		c0-0.1,0-0.1-0.1-0.2C29.3,39.8,29.2,39.8,29.1,39.8z M22.5,27c-0.1,0-0.1-0.1-0.2-0.1s-0.1,0-0.2,0.1l-2.7,2.7
		c-0.1,0.1-0.1,0.2-0.1,0.3c0,0.1,0.1,0.2,0.3,0.2h1.6v11.5c0,0.1,0,0.1,0.1,0.2c0.1,0.1,0.1,0.1,0.2,0.1h1.6c0.1,0,0.1,0,0.2-0.1
		s0.1-0.1,0.1-0.2V30.1H25c0.1,0,0.1,0,0.2-0.1s0.1-0.1,0.1-0.2s0-0.1-0.1-0.2L22.5,27z M34.2,27c-0.1-0.1-0.1-0.1-0.2-0.1h-7
		c-0.1,0-0.1,0-0.2,0.1s-0.1,0.1-0.1,0.2v1.6c0,0.1,0,0.1,0.1,0.2s0.1,0.1,0.2,0.1h7.1c0.1,0,0.1,0,0.2-0.1c0.1-0.1,0.1-0.1,0.1-0.2
		v-1.6C34.3,27.1,34.3,27.1,34.2,27z M32.4,31.2H27c-0.1,0-0.1,0-0.2,0.1s-0.1,0.1-0.1,0.2v1.6c0,0.1,0,0.1,0.1,0.2
		c0.1,0.1,0.1,0.1,0.2,0.1h5.5c0.1,0,0.1,0,0.2-0.1c0.1-0.1,0.1-0.1,0.1-0.2v-1.6c0-0.1,0-0.1-0.1-0.2
		C32.6,31.2,32.5,31.2,32.4,31.2z"/>
	<path class="st8" d="M38.2,26.9h10.9v3.6c0.2,0,0.4-0.1,0.6-0.1c0.1,0,0.2,0,0.3,0v-4.5H37.3v13.7h8.1v-1h-7.1V26.9H38.2z
		 M39.6,32.3v1h6.6c0.1-0.4,0.2-0.7,0.4-1H39.6z M47.7,29.1h-8.1v1h8.1C47.7,30.1,47.7,29.1,47.7,29.1z M39.6,36.5h6.9
		c0.2-0.1,0.4-0.2,0.6-0.3c-0.2-0.2-0.4-0.5-0.5-0.8h-6.9L39.6,36.5L39.6,36.5z M47.1,33.9c0,1.5,1.2,2.6,2.7,2.6s2.7-1.2,2.7-2.6
		c0-1.5-1.2-2.6-2.7-2.6C48.3,31.3,47.1,32.5,47.1,33.9z M51.9,37h-4.3c-0.8,0-1.4,0.7-1.4,1.5v4.3v0.1h7v-0.1v-4.3
		C53.3,37.7,52.6,37,51.9,37z"/>
	<path class="st8" d="M90.8,26.4H75.7c-0.2,0-0.4,0.2-0.4,0.4s0.2,0.4,0.4,0.4h0.9V42c0,0.2,0.1,0.3,0.2,0.4c0.1,0.1,0.3,0.1,0.4,0
		l1.8-1.2l1.8,1.2c0.1,0.1,0.3,0.1,0.5,0l1.8-1.2l1.8,1.2c0.1,0.1,0.3,0.1,0.5,0l1.8-1.2l1.8,1.2c0.1,0,0.2,0.1,0.2,0.1
		c0.1,0,0.1,0,0.2,0c0.1-0.1,0.2-0.2,0.2-0.4V27.3h1c0.2,0,0.4-0.2,0.4-0.4C91.3,26.6,91.1,26.4,90.8,26.4z M87.6,40.3
		c-0.1-0.1-0.3-0.1-0.5,0l-1.8,1.2l-1.8-1.2c-0.1-0.1-0.3-0.1-0.5,0l-1.8,1.2l-1.8-1.2c-0.1-0.1-0.3-0.1-0.5,0l-1.4,0.9v-14H89v14
		L87.6,40.3z M83.8,32.1h-4.4c-0.2,0-0.4,0.2-0.4,0.4s0.2,0.4,0.4,0.4h4.4c0.2,0,0.4-0.2,0.4-0.4C84.2,32.3,84.1,32.1,83.8,32.1z
		 M82.7,34.4c0.2,0,0.4-0.2,0.4-0.4s-0.2-0.4-0.4-0.4h-3.3c-0.2,0-0.4,0.2-0.4,0.4s0.2,0.4,0.4,0.4H82.7z M87.1,32.1H86
		c-0.2,0-0.4,0.2-0.4,0.4s0.2,0.4,0.4,0.4h1.1c0.2,0,0.4-0.2,0.4-0.4C87.6,32.3,87.4,32.1,87.1,32.1z M87.1,33.6H86
		c-0.2,0-0.4,0.2-0.4,0.4s0.2,0.4,0.4,0.4h1.1c0.2,0,0.4-0.2,0.4-0.4S87.4,33.6,87.1,33.6z M83.8,28.9h-4.4c-0.2,0-0.4,0.2-0.4,0.4
		c0,0.2,0.2,0.4,0.4,0.4h4.4c0.2,0,0.4-0.2,0.4-0.4C84.2,29,84.1,28.9,83.8,28.9z M82.7,31.1c0.2,0,0.4-0.2,0.4-0.4
		c0-0.2-0.2-0.4-0.4-0.4h-3.3c-0.2,0-0.4,0.2-0.4,0.4c0,0.2,0.2,0.4,0.4,0.4H82.7z M87.1,28.9H86c-0.2,0-0.4,0.2-0.4,0.4
		c0,0.2,0.2,0.4,0.4,0.4h1.1c0.2,0,0.4-0.2,0.4-0.4C87.6,29,87.4,28.9,87.1,28.9z M87.1,30.3H86c-0.2,0-0.4,0.2-0.4,0.4
		c0,0.2,0.2,0.4,0.4,0.4h1.1c0.2,0,0.4-0.2,0.4-0.4C87.6,30.5,87.4,30.3,87.1,30.3z M83.8,35.5h-4.4c-0.2,0-0.4,0.2-0.4,0.4
		s0.2,0.4,0.4,0.4h4.4c0.2,0,0.4-0.2,0.4-0.4C84.2,35.7,84.1,35.5,83.8,35.5z M82.7,36.9h-3.3c-0.2,0-0.4,0.2-0.4,0.4
		s0.2,0.4,0.4,0.4h3.3c0.2,0,0.4-0.2,0.4-0.4C83.1,37.1,82.9,36.9,82.7,36.9z M87.1,35.5H86c-0.2,0-0.4,0.2-0.4,0.4s0.2,0.4,0.4,0.4
		h1.1c0.2,0,0.4-0.2,0.4-0.4C87.6,35.7,87.4,35.5,87.1,35.5z M87.1,36.9H86c-0.2,0-0.4,0.2-0.4,0.4s0.2,0.4,0.4,0.4h1.1
		c0.2,0,0.4-0.2,0.4-0.4C87.6,37.1,87.4,36.9,87.1,36.9z"/>
	<path class="st8" d="M67.2,37.8c-0.3,0-0.5-0.2-0.5-0.5s0.2-0.5,0.5-0.5H68v-0.6h-0.5v-0.7h-0.6v0.8c-0.4,0.1-0.8,0.5-0.8,1
		c0,0.6,0.5,1.1,1.1,1.1c0.3,0,0.5,0.2,0.5,0.5s-0.2,0.5-0.5,0.5h-0.8V40h0.5v0.7h0.6v-0.8c0.4-0.1,0.8-0.5,0.8-1
		C68.3,38.3,67.8,37.8,67.2,37.8z M64.4,39.4h-3.8V40h3.8V39.4z M64.4,38.4h-3.8V39h3.8V38.4z M66.8,28.5h-5.1v0.6h5.1V28.5z
		 M68,31.4h-7.4V32H68V31.4z M68,32.5h-7.4v0.6H68V32.5z M68,33.6h-7.4v0.6H68V33.6z M70.7,25.9v0.5H70v-0.5h-1.6v0.5h-0.7v-0.5
		h-0.6v0.5h-0.7v-0.5h-0.6v0.5h-0.7v-0.5h-0.6v0.5h-0.7v-0.5h-0.6v0.5h-0.7v-0.5h-0.6v0.5h-0.7v-0.5h-0.6v0.5h-0.7v-0.5h-1.6v0.5
		h-0.7v-0.5H57v17h0.6v-0.5h0.7v0.5h1.6v-0.5h0.7v0.5h0.6v-0.5h0.7v0.5h0.6v-0.5h0.7v0.5h0.6v-0.5h0.7v0.5h0.6v-0.5h0.7v0.5h0.6
		v-0.5h0.7v0.5h0.6v-0.5h0.7v0.5H70v-0.5h0.7v0.5h0.6v-17C71.3,25.9,70.7,25.9,70.7,25.9z M70.7,41.9H57.9V27h12.8
		C70.7,27,70.7,41.9,70.7,41.9z"/>
	<path class="st8" d="M104.1,26.2c-2.4,0-4.4,1.4-5,3.3c0.5,0,0.9,0.1,1.3,0.3h6.3c0.1,0,0.3,0.1,0.3,0.3s-0.1,0.3-0.3,0.3h-5.5
		c0.3,0.3,0.6,0.6,0.8,1h4.7c0.1,0,0.3,0.1,0.3,0.3c0,0.1-0.1,0.3-0.3,0.3h-4.5c0.1,0.4,0.2,0.9,0.2,1.4s-0.1,0.9-0.2,1.4
		c0.2,0.1,0.4,0.1,0.6,0.1l-0.1,1.3c0,0.4,0.4,0.6,0.7,0.3l1.4-1.5c2.5-0.3,4.4-2.1,4.4-4.3C109.2,28.1,106.9,26.2,104.1,26.2z
		 M104.5,40.2c-0.4-1.2-1.4-2.2-2.6-2.6c-0.1,0-0.3,0-0.4,0.2l-1.7,3.6l0.3-1.8c0-0.2,0-0.4-0.1-0.6l-0.9-1.1c0-0.1-0.1-0.1-0.2-0.1
		s-0.1,0-0.2,0.1L98,39c-0.1,0.2-0.2,0.4-0.1,0.6l0.3,1.8l-1.7-3.6c-0.1-0.1-0.2-0.2-0.4-0.2c-1.2,0.4-2.2,1.3-2.6,2.6l-0.3,0.9
		c-0.1,0.2,0,0.5,0.1,0.7s0.4,0.3,0.7,0.3h10c0.3,0,0.5-0.1,0.7-0.3s0.2-0.5,0.1-0.7L104.5,40.2z M99,37.2c1.4,0,2.6-2.1,2.6-4
		c0-1.9-1.2-3-2.6-3s-2.6,1-2.6,3C96.4,35.1,97.6,37.2,99,37.2z"/>
	<path class="st8" d="M122,37.8c-0.3,0-0.5-0.2-0.5-0.5s0.2-0.5,0.5-0.5h0.8v-0.6h-0.5v-0.7h-0.6v0.8c-0.4,0.1-0.8,0.5-0.8,1
		c0,0.6,0.5,1.1,1.1,1.1c0.3,0,0.5,0.2,0.5,0.5s-0.2,0.5-0.5,0.5h-0.8V40h0.5v0.7h0.6v-0.8c0.4-0.1,0.8-0.5,0.8-1
		C123.1,38.3,122.6,37.8,122,37.8z M119.2,39.4h-3.8V40h3.8V39.4z M119.2,38.4h-3.8V39h3.8V38.4z M121.6,28.5h-5.1v0.6h5.1V28.5z
		 M122.8,31.4h-7.4V32h7.4V31.4z M122.8,32.5h-7.4v0.6h7.4V32.5z M122.8,33.6h-7.4v0.6h7.4V33.6z M125.5,25.9v0.5h-0.7v-0.5h-1.6
		v0.5h-0.7v-0.5h-0.6v0.5h-0.7v-0.5h-0.6v0.5H120v-0.5h-0.6v0.5h-0.7v-0.5h-0.6v0.5h-0.7v-0.5h-0.6v0.5h-0.7v-0.5h-0.6v0.5H115v-0.5
		h-1.6v0.5h-0.7v-0.5h-0.6v17h0.6v-0.5h0.7v0.5h1.6v-0.5h0.7v0.5h0.6v-0.5h0.7v0.5h0.6v-0.5h0.7v0.5h0.6v-0.5h0.7v0.5h0.6v-0.5h0.7
		v0.5h0.6v-0.5h0.7v0.5h0.6v-0.5h0.7v0.5h1.6v-0.5h0.7v0.5h0.6v-17C126.4,25.9,125.5,25.9,125.5,25.9z M125.5,41.9h-12.8V27h12.8
		V41.9z"/>
	<path class="st9" d="M8.4,50.2H4.5c-0.1,0-0.1,0-0.2,0.1s-0.1,0.1-0.1,0.2v1.6c0,0.1,0,0.1,0.1,0.2c0.1,0.1,0.1,0.1,0.2,0.1h3.8
		c0.1,0,0.1,0,0.2-0.1c0.1-0.1,0.1-0.1,0.1-0.2v-1.6c0-0.1,0-0.1-0.1-0.2C8.5,50.2,8.4,50.2,8.4,50.2z M6.2,48.1h2.2
		c0.1,0,0.1,0,0.2-0.1c0.1-0.1,0.1-0.1,0.1-0.2v-1.6c0-0.1,0-0.1-0.1-0.2c-0.1-0.1-0.1-0.1-0.2-0.1H6.2C6.1,45.9,6,46,6,46
		c-0.1,0.1-0.1,0.1-0.1,0.2v1.6c0,0.1,0,0.1,0.1,0.2C6,48,6.1,48.1,6.2,48.1z M16,57.9c0-0.1-0.1-0.2-0.3-0.2h-1.6V46.2
		c0-0.1,0-0.1-0.1-0.2c-0.1-0.1-0.1-0.1-0.2-0.1h-1.6c-0.1,0-0.1,0-0.2,0.1c-0.1,0.1-0.1,0.1-0.1,0.2v11.5h-1.6
		c-0.1,0-0.1,0-0.2,0.1C10,57.8,10,57.9,10,58s0,0.1,0.1,0.2l2.7,2.7c0.1,0,0.1,0.1,0.2,0.1c0.1,0,0.1,0,0.2-0.1l2.7-2.7
		C16,58.1,16,58,16,57.9z M8.4,58.8H1.3c-0.1,0-0.1,0-0.2,0.1C1,58.9,1,59,1,59.1v1.6c0,0.1,0,0.1,0.1,0.2S1.2,61,1.3,61h7.1
		c0.1,0,0.1,0,0.2-0.1c0.1-0.1,0.1-0.1,0.1-0.2v-1.6c0-0.1,0-0.1-0.1-0.2C8.5,58.8,8.4,58.8,8.4,58.8z M8.4,54.5H2.9
		c-0.1,0-0.1,0-0.2,0.1c-0.1,0.1-0.1,0.1-0.1,0.2v1.6c0,0.1,0,0.1,0.1,0.2c0.1,0.1,0.1,0.1,0.2,0.1h5.5c0.1,0,0.1,0,0.2-0.1
		c0.1-0.1,0.1-0.1,0.1-0.2v-1.6c0-0.1,0-0.1-0.1-0.2C8.5,54.5,8.4,54.5,8.4,54.5z"/>
	<path class="st9" d="M30.8,54.5H27c-0.1,0-0.1,0-0.2,0.1s-0.1,0.1-0.1,0.2v1.6c0,0.1,0,0.1,0.1,0.2c0.1,0.1,0.1,0.1,0.2,0.1h3.8
		c0.1,0,0.1,0,0.2-0.1s0.1-0.1,0.1-0.2v-1.6c0-0.1,0-0.1-0.1-0.2C30.9,54.5,30.9,54.5,30.8,54.5z M29.1,58.8H27
		c-0.1,0-0.1,0-0.2,0.1s-0.1,0.1-0.1,0.2v1.6c0,0.1,0,0.1,0.1,0.2S26.9,61,27,61h2.2c0.1,0,0.1,0,0.2-0.1s0.1-0.1,0.1-0.2v-1.6
		c0-0.1,0-0.1-0.1-0.2C29.3,58.8,29.2,58.8,29.1,58.8z M22.5,46c-0.1,0-0.1-0.1-0.2-0.1s-0.1,0-0.2,0.1l-2.7,2.7
		c-0.1,0.1-0.1,0.2-0.1,0.3s0.1,0.2,0.3,0.2h1.6v11.5c0,0.1,0,0.1,0.1,0.2c0.1,0.1,0.1,0.1,0.2,0.1h1.6c0.1,0,0.1,0,0.2-0.1
		s0.1-0.1,0.1-0.2V49.1H25c0.1,0,0.1,0,0.2-0.1s0.1-0.1,0.1-0.2c0-0.1,0-0.1-0.1-0.2L22.5,46z M34.2,46c-0.1-0.1-0.1-0.1-0.2-0.1h-7
		c-0.1,0-0.1,0-0.2,0.1s-0.1,0.1-0.1,0.2v1.6c0,0.1,0,0.1,0.1,0.2c0.1,0.1,0.1,0.1,0.2,0.1h7.1c0.1,0,0.1,0,0.2-0.1
		c0.1-0.1,0.1-0.1,0.1-0.2v-1.6C34.3,46.1,34.3,46.1,34.2,46z M32.4,50.2H27c-0.1,0-0.1,0-0.2,0.1s-0.1,0.1-0.1,0.2v1.6
		c0,0.1,0,0.1,0.1,0.2c0.1,0.1,0.1,0.1,0.2,0.1h5.5c0.1,0,0.1,0,0.2-0.1c0.1-0.1,0.1-0.1,0.1-0.2v-1.6c0-0.1,0-0.1-0.1-0.2
		C32.6,50.2,32.5,50.2,32.4,50.2z"/>
	<path class="st9" d="M38.2,45.9c0.9,0,10,0,10.9,0c0,0.3,0,1.8,0,3.6c0.2,0,0.4-0.1,0.6-0.1c0.1,0,0.2,0,0.3,0v-4.5H37.3v13.7h8.1
		v-1c-2.9,0-6.6,0-7.1,0C38.2,56.8,38.2,46.8,38.2,45.9z M39.6,51.3v1h6.6c0.1-0.4,0.2-0.7,0.4-1H39.6z M47.7,48.1h-8.1v1h8.1
		C47.7,49.1,47.7,48.1,47.7,48.1z M39.6,55.5h6.9c0.2-0.1,0.4-0.2,0.6-0.3c-0.2-0.2-0.4-0.5-0.5-0.8h-6.9L39.6,55.5L39.6,55.5z
		 M47.1,52.9c0,1.5,1.2,2.6,2.7,2.6s2.7-1.2,2.7-2.6c0-1.5-1.2-2.6-2.7-2.6C48.3,50.3,47.1,51.5,47.1,52.9z M51.9,56h-4.3
		c-0.8,0-1.4,0.7-1.4,1.5v4.3v0.1h7v-0.1v-4.3C53.3,56.7,52.6,56,51.9,56z"/>
	<path class="st9" d="M90.8,45.4H75.7c-0.2,0-0.4,0.2-0.4,0.4s0.2,0.4,0.4,0.4h0.9V61c0,0.2,0.1,0.3,0.2,0.4c0.1,0.1,0.3,0.1,0.4,0
		l1.8-1.2l1.8,1.2c0.1,0.1,0.3,0.1,0.5,0l1.8-1.2l1.8,1.2c0.1,0.1,0.3,0.1,0.5,0l1.8-1.2l1.8,1.2c0.1,0,0.2,0.1,0.2,0.1
		c0.1,0,0.1,0,0.2,0c0.1-0.1,0.2-0.2,0.2-0.4V46.3h1c0.2,0,0.4-0.2,0.4-0.4S91.1,45.4,90.8,45.4z M87.6,59.3c-0.1-0.1-0.3-0.1-0.5,0
		l-1.8,1.2l-1.8-1.2c-0.1-0.1-0.3-0.1-0.5,0l-1.8,1.2l-1.8-1.2c-0.1-0.1-0.3-0.1-0.5,0l-1.4,0.9v-14H89v14L87.6,59.3z M83.8,51.1
		h-4.4c-0.2,0-0.4,0.2-0.4,0.4s0.2,0.4,0.4,0.4h4.4c0.2,0,0.4-0.2,0.4-0.4C84.2,51.3,84.1,51.1,83.8,51.1z M82.7,53.4
		c0.2,0,0.4-0.2,0.4-0.4s-0.2-0.4-0.4-0.4h-3.3c-0.2,0-0.4,0.2-0.4,0.4s0.2,0.4,0.4,0.4H82.7z M87.1,51.1H86c-0.2,0-0.4,0.2-0.4,0.4
		s0.2,0.4,0.4,0.4h1.1c0.2,0,0.4-0.2,0.4-0.4C87.6,51.3,87.4,51.1,87.1,51.1z M87.1,52.6H86c-0.2,0-0.4,0.2-0.4,0.4s0.2,0.4,0.4,0.4
		h1.1c0.2,0,0.4-0.2,0.4-0.4C87.6,52.8,87.4,52.6,87.1,52.6z M83.8,47.9h-4.4c-0.2,0-0.4,0.2-0.4,0.4s0.2,0.4,0.4,0.4h4.4
		c0.2,0,0.4-0.2,0.4-0.4S84.1,47.9,83.8,47.9z M82.7,50.1c0.2,0,0.4-0.2,0.4-0.4s-0.2-0.4-0.4-0.4h-3.3c-0.2,0-0.4,0.2-0.4,0.4
		s0.2,0.4,0.4,0.4H82.7z M87.1,47.9H86c-0.2,0-0.4,0.2-0.4,0.4s0.2,0.4,0.4,0.4h1.1c0.2,0,0.4-0.2,0.4-0.4S87.4,47.9,87.1,47.9z
		 M87.1,49.3H86c-0.2,0-0.4,0.2-0.4,0.4s0.2,0.4,0.4,0.4h1.1c0.2,0,0.4-0.2,0.4-0.4C87.6,49.5,87.4,49.3,87.1,49.3z M83.8,54.5h-4.4
		c-0.2,0-0.4,0.2-0.4,0.4s0.2,0.4,0.4,0.4h4.4c0.2,0,0.4-0.2,0.4-0.4S84.1,54.5,83.8,54.5z M82.7,55.9h-3.3c-0.2,0-0.4,0.2-0.4,0.4
		s0.2,0.4,0.4,0.4h3.3c0.2,0,0.4-0.2,0.4-0.4C83.1,56.1,82.9,55.9,82.7,55.9z M87.1,54.5H86c-0.2,0-0.4,0.2-0.4,0.4s0.2,0.4,0.4,0.4
		h1.1c0.2,0,0.4-0.2,0.4-0.4S87.4,54.5,87.1,54.5z M87.1,55.9H86c-0.2,0-0.4,0.2-0.4,0.4s0.2,0.4,0.4,0.4h1.1c0.2,0,0.4-0.2,0.4-0.4
		C87.6,56.1,87.4,55.9,87.1,55.9z"/>
	<path class="st9" d="M67.2,56.8c-0.3,0-0.5-0.2-0.5-0.5s0.2-0.5,0.5-0.5H68v-0.6h-0.5v-0.7h-0.6v0.8c-0.4,0.1-0.8,0.5-0.8,1
		c0,0.6,0.5,1.1,1.1,1.1c0.3,0,0.5,0.2,0.5,0.5s-0.2,0.5-0.5,0.5h-0.8V59h0.5v0.7h0.6v-0.8c0.4-0.1,0.8-0.5,0.8-1
		C68.3,57.3,67.8,56.8,67.2,56.8z M64.4,58.4h-3.8V59h3.8V58.4z M64.4,57.4h-3.8V58h3.8V57.4z M66.8,47.5h-5.1v0.6h5.1V47.5z
		 M68,50.4h-7.4V51H68V50.4z M68,51.5h-7.4v0.6H68V51.5z M68,52.6h-7.4v0.6H68V52.6z M70.7,44.9v0.5H70v-0.5h-1.6v0.5h-0.7v-0.5
		h-0.6v0.5h-0.7v-0.5h-0.6v0.5h-0.7v-0.5h-0.6v0.5h-0.7v-0.5h-0.6v0.5h-0.7v-0.5h-0.6v0.5h-0.7v-0.5h-0.6v0.5h-0.7v-0.5h-1.6v0.5
		h-0.7v-0.5H57v17h0.6v-0.5h0.7v0.5h1.6v-0.5h0.7v0.5h0.6v-0.5h0.7v0.5h0.6v-0.5h0.7v0.5h0.6v-0.5h0.7v0.5h0.6v-0.5h0.7v0.5h0.6
		v-0.5h0.7v0.5h0.6v-0.5h0.7v0.5H70v-0.5h0.7v0.5h0.6v-17H70.7z M70.7,60.9H57.9V46h12.8C70.7,46,70.7,60.9,70.7,60.9z"/>
	<path class="st9" d="M104.1,45.2c-2.4,0-4.4,1.4-5,3.3c0.5,0,0.9,0.1,1.3,0.3h6.3c0.1,0,0.3,0.1,0.3,0.3s-0.1,0.3-0.3,0.3h-5.5
		c0.3,0.3,0.6,0.6,0.8,1h4.7c0.1,0,0.3,0.1,0.3,0.3s-0.1,0.3-0.3,0.3h-4.5c0.1,0.4,0.2,0.9,0.2,1.4s-0.1,0.9-0.2,1.4
		c0.2,0.1,0.4,0.1,0.6,0.1l-0.1,1.3c0,0.4,0.4,0.6,0.7,0.3l1.4-1.5c2.5-0.3,4.4-2.1,4.4-4.3C109.2,47.1,106.9,45.2,104.1,45.2z
		 M104.5,59.2c-0.4-1.2-1.4-2.2-2.6-2.6c-0.1,0-0.3,0-0.4,0.2l-1.7,3.6l0.3-1.8c0-0.2,0-0.4-0.1-0.6l-0.9-1.1c0-0.1-0.1-0.1-0.2-0.1
		s-0.1,0-0.2,0.1L98,58c-0.1,0.2-0.2,0.4-0.1,0.6l0.3,1.8l-1.7-3.6c-0.1-0.1-0.2-0.2-0.4-0.2c-1.2,0.4-2.2,1.3-2.6,2.6l-0.3,0.9
		c-0.1,0.2,0,0.5,0.1,0.7c0.2,0.2,0.4,0.3,0.7,0.3h10c0.3,0,0.5-0.1,0.7-0.3s0.2-0.5,0.1-0.7L104.5,59.2z M99,56.2
		c1.4,0,2.6-2.1,2.6-4s-1.2-3-2.6-3s-2.6,1-2.6,3C96.4,54.1,97.6,56.2,99,56.2z"/>
	<path class="st9" d="M122,56.8c-0.3,0-0.5-0.2-0.5-0.5s0.2-0.5,0.5-0.5h0.8v-0.6h-0.5v-0.7h-0.6v0.8c-0.4,0.1-0.8,0.5-0.8,1
		c0,0.6,0.5,1.1,1.1,1.1c0.3,0,0.5,0.2,0.5,0.5s-0.2,0.5-0.5,0.5h-0.8V59h0.5v0.7h0.6v-0.8c0.4-0.1,0.8-0.5,0.8-1
		C123.1,57.3,122.6,56.8,122,56.8z M119.2,58.4h-3.8V59h3.8V58.4z M119.2,57.4h-3.8V58h3.8V57.4z M121.6,47.5h-5.1v0.6h5.1V47.5z
		 M122.8,50.4h-7.4V51h7.4V50.4z M122.8,51.5h-7.4v0.6h7.4V51.5z M122.8,52.6h-7.4v0.6h7.4V52.6z M125.5,44.9v0.5h-0.7v-0.5h-1.6
		v0.5h-0.7v-0.5h-0.6v0.5h-0.7v-0.5h-0.6v0.5H120v-0.5h-0.6v0.5h-0.7v-0.5h-0.6v0.5h-0.7v-0.5h-0.6v0.5h-0.7v-0.5h-0.6v0.5H115v-0.5
		h-1.6v0.5h-0.7v-0.5h-0.6v17h0.6v-0.5h0.7v0.5h1.6v-0.5h0.7v0.5h0.6v-0.5h0.7v0.5h0.6v-0.5h0.7v0.5h0.6v-0.5h0.7v0.5h0.6v-0.5h0.7
		v0.5h0.6v-0.5h0.7v0.5h0.6v-0.5h0.7v0.5h1.6v-0.5h0.7v0.5h0.6v-17H125.5z M125.5,60.9h-12.8V46h12.8V60.9z"/>
	<path class="st10" d="M105.1,1.2V0.1h-1.4v1.2h-4.8V0.1h-1.4v1.2h-6.2v16.8h20V1.2H105.1z M109.9,16.7H92.7V6.4h17.2
		C109.9,6.4,109.9,16.7,109.9,16.7z M109.9,5H92.7V2.6h4.8v1.2h1.4V2.6h4.8v0.9h1.4V2.6h4.8C109.9,2.6,109.9,5,109.9,5z M104.5,10.5
		l-1-1l-2.6,2.6l-1.8-1.8l-1,1l2.8,2.7L104.5,10.5z"/>
	<path class="st11" d="M10,66.1c0,0.4,0.2,0.8,0.5,1v13.1c0,0.4,0.3,0.7,0.7,0.7s0.7-0.3,0.7-0.7V67.1c0.3-0.2,0.5-0.6,0.5-1
		c0-0.7-0.6-1.2-1.3-1.2C10.5,64.9,10,65.5,10,66.1z M9.9,67.1c0,1.8,0,3.6,0,5.4c-3.6,1.3-5.9-1.3-9.5,0c0-1.8,0-3.6,0-5.4
		C4.1,65.8,6.3,68.4,9.9,67.1z"/>
	<path class="st12" d="M25,66.1c0,0.4,0.2,0.8,0.5,1v13.1c0,0.4,0.3,0.7,0.7,0.7c0.4,0,0.7-0.3,0.7-0.7V67.1c0.3-0.2,0.5-0.6,0.5-1
		c0-0.7-0.6-1.2-1.3-1.2C25.5,64.9,25,65.5,25,66.1z M24.9,67.1c0,1.8,0,3.6,0,5.4c-3.6,1.3-5.9-1.3-9.5,0c0-1.8,0-3.6,0-5.4
		C19.1,65.8,21.3,68.4,24.9,67.1z"/>
	<path class="st13" d="M41,66.1c0,0.4,0.2,0.8,0.5,1v13.1c0,0.4,0.3,0.7,0.7,0.7s0.7-0.3,0.7-0.7V67.1c0.3-0.2,0.5-0.6,0.5-1
		c0-0.7-0.6-1.2-1.3-1.2C41.5,64.9,41,65.5,41,66.1z M40.9,67.1c0,1.8,0,3.6,0,5.4c-3.6,1.3-5.9-1.3-9.5,0c0-1.8,0-3.6,0-5.4
		C35.1,65.8,37.3,68.4,40.9,67.1z"/>
	<path class="st14" d="M58,66.1c0,0.4,0.2,0.8,0.5,1v13.1c0,0.4,0.3,0.7,0.7,0.7s0.7-0.3,0.7-0.7V67.1c0.3-0.2,0.5-0.6,0.5-1
		c0-0.7-0.6-1.2-1.3-1.2C58.5,64.9,58,65.5,58,66.1z M57.9,67.1c0,1.8,0,3.6,0,5.4c-3.6,1.3-5.9-1.3-9.5,0c0-1.8,0-3.6,0-5.4
		C52.1,65.8,54.3,68.4,57.9,67.1z"/>
	<path class="st15" d="M75,66.1c0,0.4,0.2,0.8,0.5,1v13.1c0,0.4,0.3,0.7,0.7,0.7c0.4,0,0.7-0.3,0.7-0.7V67.1c0.3-0.2,0.5-0.6,0.5-1
		c0-0.7-0.6-1.2-1.3-1.2C75.5,64.9,75,65.5,75,66.1z M74.9,67.1c0,1.8,0,3.6,0,5.4c-3.6,1.3-5.9-1.3-9.5,0c0-1.8,0-3.6,0-5.4
		C69.1,65.8,71.3,68.4,74.9,67.1z"/>
	<path class="st16" d="M92,66.1c0,0.4,0.2,0.8,0.5,1v13.1c0,0.4,0.3,0.7,0.7,0.7c0.4,0,0.7-0.3,0.7-0.7V67.1c0.3-0.2,0.5-0.6,0.5-1
		c0-0.7-0.6-1.2-1.3-1.2C92.5,64.9,92,65.5,92,66.1z M91.9,67.1c0,1.8,0,3.6,0,5.4c-3.6,1.3-5.9-1.3-9.5,0c0-1.8,0-3.6,0-5.4
		C86.1,65.8,88.3,68.4,91.9,67.1z"/>
	<path class="st9" d="M107.5,64.7c-4.4,0-8,3.6-8,8s3.6,8,8,8s8-3.6,8-8C115.4,68.3,111.9,64.7,107.5,64.7z M107.5,79.4
		c-3.7,0-6.7-3-6.7-6.7s3-6.7,6.7-6.7s6.7,3,6.7,6.7S111.1,79.4,107.5,79.4z M110,70.1l-3.7,3.7l-1.4-1.4c-0.3-0.3-0.7-0.3-0.9,0
		c-0.3,0.3-0.3,0.7,0,0.9l1.8,1.8c0.1,0.1,0.3,0.2,0.5,0.2s0.3-0.1,0.5-0.2l4.2-4.2c0.3-0.3,0.3-0.7,0-0.9
		C110.7,69.9,110.3,69.9,110,70.1z"/>
	<path class="st9" d="M13.1,88.3l-0.8,1c1.8,1.3,2.7,3.4,2.3,5.5c-0.5,3.2-3.7,5.3-7,4.8c-3.4-0.5-5.7-3.5-5.1-6.6
		c0.3-1.5,1.1-2.9,2.5-3.8c1.2-0.8,2.6-1.2,4-1.1l-1.2,1.1L8.5,90l1.8-1.8l0,0l0.8-0.8l-0.9-0.8l0,0l-1.9-1.7l-0.8,0.8l1.2,1.1
		c-1.7-0.1-3.4,0.4-4.8,1.3c-1.6,1.1-2.7,2.7-3,4.6c-0.6,3.8,2.2,7.4,6.2,8.1c0.4,0.1,0.8,0.1,1.2,0.1c3.6,0,6.8-2.5,7.4-5.9
		C16.3,92.4,15.3,89.9,13.1,88.3z"/>
	<path class="st8" d="M34.4,89.4H34v-1c0-1.4-1.1-2.5-2.5-2.5h-5.2c-1.4,0-2.5,1.1-2.5,2.5v1h-0.4c-1.4,0-2.5,1.1-2.5,2.5v4
		c0,1.4,1.1,2.5,2.5,2.5h0.4v3.2c0,0.7,0.6,1.2,1.2,1.2h7.7c0.7,0,1.2-0.6,1.2-1.2v-3.2h0.4c1.4,0,2.5-1.1,2.5-2.5v-4
		C36.9,90.6,35.8,89.4,34.4,89.4z M24.7,88.5c0-0.9,0.7-1.6,1.5-1.6h5.2c0.9,0,1.5,0.7,1.5,1.6v1h-8.3L24.7,88.5L24.7,88.5z
		 M33,101.6c0,0.2-0.1,0.3-0.3,0.3H25c-0.2,0-0.3-0.1-0.3-0.3v-5.2H33V101.6z M35.9,96c0,0.9-0.7,1.6-1.5,1.6H34v-1.1h0.6
		c0.3,0,0.5-0.2,0.5-0.5s-0.2-0.5-0.5-0.5H23.1c-0.3,0-0.5,0.2-0.5,0.5s0.2,0.5,0.5,0.5h0.7v1.1h-0.4c-0.9,0-1.5-0.7-1.5-1.6v-4
		c0-0.9,0.7-1.6,1.5-1.6h11c0.9,0,1.5,0.7,1.5,1.6V96z M25.8,98.7h6c0.3,0,0.5-0.2,0.5-0.5s-0.2-0.5-0.5-0.5h-6
		c-0.3,0-0.5,0.2-0.5,0.5C25.4,98.5,25.6,98.7,25.8,98.7z M31.9,99.7h-6c-0.3,0-0.5,0.2-0.5,0.5s0.2,0.5,0.5,0.5h6
		c0.3,0,0.5-0.2,0.5-0.5C32.3,99.9,32.1,99.7,31.9,99.7z M34.4,91.3h-1c-0.3,0-0.5,0.2-0.5,0.5s0.2,0.5,0.5,0.5h1
		c0.3,0,0.5-0.2,0.5-0.5C34.8,91.5,34.6,91.3,34.4,91.3z"/>
	<path class="st9" d="M32.6,130.9H9.9c-1.3,0-2.4,1.1-2.4,2.4v5.3c-4.3,1.2-7.5,5.2-7.5,9.9s3.2,8.7,7.5,9.9v9.1
		c0,1.3,1.1,2.4,2.4,2.4h18.6c0.2,0,0.4-0.1,0.6-0.2l5.7-5.7c0.2-0.2,0.2-0.4,0.2-0.6v-30.1C35,131.9,33.9,130.9,32.6,130.9z
		 M1.7,148.5c0-4.8,3.9-8.7,8.7-8.7s8.7,3.9,8.7,8.7s-3.9,8.7-8.7,8.7C5.6,157.1,1.7,153.3,1.7,148.5z M29.3,167v-2.2
		c0-0.4,0.3-0.7,0.7-0.7h2.2L29.3,167z M33.3,162.5H30c-1.3,0-2.4,1.1-2.4,2.4v3.3H9.9c-0.4,0-0.7-0.3-0.7-0.7v-8.8
		c0.4,0,0.8,0.1,1.2,0.1c3.1,0,5.9-1.4,7.8-3.5h5.1c0.5,0,0.8-0.4,0.8-0.8c0-0.5-0.4-0.8-0.8-0.8h-3.9c0.7-1.3,1.2-2.7,1.3-4.2h2.6
		c0.5,0,0.8-0.4,0.8-0.8c0-0.5-0.4-0.8-0.8-0.8h-2.6c-0.1-1.5-0.6-3-1.3-4.2h3.8c0.5,0,0.8-0.4,0.8-0.8c0-0.5-0.4-0.8-0.8-0.8h-5
		c-1.9-2.2-4.7-3.7-7.9-3.7c-0.4,0-0.8,0-1.2,0.1v-0.8h24.2C33.3,137.7,33.3,162.5,33.3,162.5z M33.3,135.8H9.2v-2.5
		c0-0.4,0.3-0.7,0.7-0.7h22.8c0.4,0,0.7,0.3,0.7,0.7L33.3,135.8L33.3,135.8z M26.5,143.5h2.8c0.5,0,0.8-0.4,0.8-0.8
		c0-0.5-0.4-0.8-0.8-0.8h-2.8c-0.5,0-0.8,0.4-0.8,0.8S26,143.5,26.5,143.5z M26.5,149.4h2.8c0.5,0,0.8-0.4,0.8-0.8
		c0-0.5-0.4-0.8-0.8-0.8h-2.8c-0.5,0-0.8,0.4-0.8,0.8S26,149.4,26.5,149.4z M26.5,155.3h2.8c0.5,0,0.8-0.4,0.8-0.8
		c0-0.5-0.4-0.8-0.8-0.8h-2.8c-0.5,0-0.8,0.4-0.8,0.8C25.7,154.9,26,155.3,26.5,155.3z M29.3,159.5h-7.8c-0.5,0-0.8,0.4-0.8,0.8
		c0,0.5,0.4,0.8,0.8,0.8h7.8c0.5,0,0.8-0.4,0.8-0.8C30.1,159.9,29.7,159.5,29.3,159.5z M14,147.2c-0.1-0.2-0.3-0.3-0.5-0.3h-2.4
		l0.9-4.4c0-0.2-0.1-0.5-0.3-0.6s-0.5,0-0.6,0.2l-5,7c-0.1,0.2-0.1,0.4,0,0.5s0.3,0.3,0.4,0.3h2.4L8,153.3c-0.1,0.2,0.1,0.5,0.3,0.6
		c0.1,0,0.1,0.1,0.2,0.1c0.1,0,0.3-0.1,0.4-0.2l5-6C14,147.5,14,147.3,14,147.2z M9.5,151.4l0.5-1.9c0-0.1,0-0.3-0.1-0.4
		c-0.1-0.1-0.2-0.2-0.4-0.2h-2l3.1-4.3l-0.5,2.7c0,0.1,0,0.3,0.1,0.4c0.1,0.1,0.2,0.2,0.4,0.2h1.9L9.5,151.4z"/>
	<path class="st17" d="M57.8,143.3c0-0.3-0.2-0.6-0.5-0.7l-3.2-1.8c-0.4-0.2-0.9-0.2-1.2,0.2l-0.6,0.6c-0.2,0.2-0.4,0.2-0.6,0
		c-0.5-0.4-1-0.8-1.5-1.3s-0.9-1-1.3-1.5c-0.1-0.2-0.1-0.5,0-0.6l0.6-0.6c0.3-0.3,0.4-0.8,0.2-1.2l-1.8-3.2
		c-0.2-0.3-0.4-0.5-0.7-0.5s-0.6,0.1-0.8,0.3l-1,1c-0.7,0.7-0.7,1.9,0,3.4c0.6,1.5,1.8,3.1,3.3,4.6s3.1,2.6,4.6,3.3
		c0.8,0.3,1.4,0.5,2,0.5s1.1-0.2,1.4-0.5l1-1C57.8,143.9,57.9,143.6,57.8,143.3z M53.9,141.1l3.2,1.8c0.2,0.1,0.3,0.2,0.3,0.4
		s0,0.3-0.1,0.4l-4.3-2.4l0.2-0.2C53.4,141,53.7,140.9,53.9,141.1z M47.1,133c0.2,0,0.3,0.1,0.4,0.3l1.8,3.2
		c0.1,0.2,0.1,0.5-0.1,0.7l-0.2,0.2l-2.4-4.2C46.8,133.1,46.9,133,47.1,133C47,133,47.1,133,47.1,133z M56.3,144.8
		c-0.5,0.5-1.6,0.5-3-0.1s-3-1.7-4.5-3.2c-1.4-1.4-2.6-3-3.2-4.5c-0.6-1.4-0.6-2.4-0.1-3l0.7-0.7l2.4,4.3l-0.2,0.2
		c-0.3,0.3-0.3,0.8-0.1,1.2c0.4,0.5,0.9,1,1.3,1.5c0.5,0.5,1,0.9,1.5,1.3c0.4,0.3,0.9,0.3,1.2-0.1l0.1-0.1l4.3,2.4L56.3,144.8z"/>
	<path class="st9" d="M78.8,85.9c-4.4,0-8,3.6-8,8s3.6,8,8,8s8-3.6,8-8S83.2,85.9,78.8,85.9z M78.8,100.5c-3.7,0-6.6-3-6.6-6.6
		s3-6.6,6.6-6.6s6.6,3,6.6,6.6S82.5,100.5,78.8,100.5z M81.9,90.8c-0.3-0.3-0.7-0.3-1,0l-2.1,2.1l-2.1-2.1c-0.3-0.3-0.7-0.3-1,0
		s-0.3,0.7,0,1l2.1,2.1L75.7,96c-0.3,0.3-0.3,0.7,0,1c0.1,0.1,0.3,0.2,0.5,0.2s0.4-0.1,0.5-0.2l2.1-2.1L81,97
		c0.1,0.1,0.3,0.2,0.5,0.2s0.4-0.1,0.5-0.2c0.3-0.3,0.3-0.7,0-1l-2.1-2.1l2.1-2.1C82.2,91.5,82.2,91.1,81.9,90.8z"/>
	<path class="st9" d="M105.1,88.7l-0.2-1.1c-0.1-0.8-0.9-1.4-1.7-1.4c-0.1,0-0.2,0-0.3,0l-11.2,2.1c-1,0.2-1.7,1.1-1.5,2v0.1v6
		c0,1,0.9,1.8,1.9,1.8h12.2c1,0,1.9-0.8,1.9-1.8v-6.2C106.1,89.6,105.7,89,105.1,88.7z M103,87.2c0.1,0,0.1,0,0.2,0
		c0.4,0,0.7,0.2,0.8,0.6l0.1,0.7h-7.7L103,87.2z M105.1,96.4c0,0.4-0.4,0.8-0.9,0.8H92c-0.5,0-0.9-0.3-0.9-0.8v-6.2
		c0-0.4,0.4-0.8,0.9-0.8h12.2c0.5,0,0.9,0.3,0.9,0.8V96.4z M94.4,94.6h1v-0.9h-1V94.6z M94.4,96.4h1v-0.9h-1V96.4z M94.4,91.1h1
		v-0.9h-1V91.1z M94.4,92.9h1V92h-1V92.9z M101.9,91.4l-0.7,0.8L99,91.5l-0.4,0.4c0,0,0,0.1,0,0.2l1.8,1l-0.9,1l-0.7-0.2l-0.2,0.2
		v0.1l1.3,1.4h0.1l0.2-0.2l-0.1-0.8l0.9-1l1,1.9c0,0,0.1,0,0.2,0l0.4-0.4l-0.7-2.4l0.8-0.7c0.2-0.2,0.2-0.6,0-0.8
		C102.4,91.2,102.1,91.2,101.9,91.4z"/>
	<path class="st18" d="M117.6,92l4.7-4.7c0.3-0.3,0.3-0.8,0-1.1c-0.3-0.3-0.8-0.3-1.1,0l-4.7,4.7l-4.7-4.7c-0.3-0.3-0.8-0.3-1.1,0
		c-0.3,0.3-0.3,0.8,0,1.1l4.7,4.7l-4.7,4.7c-0.3,0.3-0.3,0.8,0,1.1c0.1,0.1,0.3,0.2,0.5,0.2s0.4-0.1,0.5-0.2l4.7-4.7l4.7,4.7
		c0.1,0.1,0.3,0.2,0.5,0.2s0.4-0.1,0.5-0.2c0.3-0.3,0.3-0.8,0-1.1L117.6,92z"/>
	<path class="st19" d="M1.1,112.9c-0.5,3,1.4,5.7,5.7,8.1l2,1.1l-1.4,2.4c-0.1,0.2-0.1,0.3-0.1,0.5s0.1,0.3,0.3,0.4
		c0.2,0.1,0.3,0.1,0.5,0.1l7.4-2.1c0.2-0.1,0.3-0.2,0.4-0.3c0.1-0.2,0.1-0.3,0.1-0.5l-1.8-7.3c0-0.2-0.1-0.3-0.3-0.4
		s-0.3-0.1-0.5-0.1s-0.3,0.2-0.4,0.3l-1.4,2.4l-2-1.1c-0.6-0.3-1.1-0.6-1.5-0.9c-0.4-0.3-0.9-0.6-1.3-1s-0.7-0.7-1-1.1
		c-0.2-0.4-0.4-0.7-0.6-1.2C5,111.7,5,111.3,5,110.8s0.1-1,0.3-1.5c0.2-0.5,0.5-1.1,0.8-1.8c0.2-0.3,0.4-0.7,0.7-1.1
		c0,0,0.1-0.1,0.1-0.2C7,106.1,7,106,7.1,106c0.1-0.1,0.1-0.2,0.1-0.3c0-0.1-0.1-0.2-0.2-0.2c-0.1-0.1-0.2,0-0.3,0
		c-0.1,0-0.2,0.1-0.2,0.1c-0.1,0.1-0.2,0.1-0.3,0.2C6.1,106,6,106,6,106.1c-1.8,1.3-3,2.5-3.6,3.5C1.7,110.8,1.2,111.9,1.1,112.9z"
		/>
	<path class="st20" d="M35.1,122.1c3.1-3.1,3.1-8.2,0-11.3s-8.2-3.1-11.3,0s-3.1,8.2,0,11.3S32,125.3,35.1,122.1z M26.6,115.3
		l1.8,1.8l3.9-3.9l1.4,1.4l-3.9,3.9l-1.4,1.4l-1.4-1.4l-1.8-1.8L26.6,115.3z"/>
	<path class="st21" d="M54.1,122.1c3.1-3.1,3.1-8.2,0-11.3s-8.2-3.1-11.3,0s-3.1,8.2,0,11.3C46,125.3,51,125.3,54.1,122.1z
		 M45.6,115.3l1.8,1.8l3.9-3.9l1.4,1.4l-3.9,3.9l-1.4,1.4l-1.4-1.4l-1.8-1.8L45.6,115.3z"/>
	<path class="st9" d="M48.6,96.8l-0.2,0.6c-0.5,0.2-0.9,0.3-1.1,0.4c-0.3,0.1-0.6,0.1-1,0.1c-0.6,0-1-0.1-1.3-0.4
		c-0.3-0.2-0.5-0.6-0.5-0.9c0-0.1,0-0.3,0-0.5s0.1-0.3,0.1-0.5l0.6-1.9c0.1-0.2,0.1-0.3,0.1-0.5s0.1-0.3,0.1-0.4
		c0-0.2-0.1-0.4-0.2-0.5c-0.1-0.1-0.3-0.1-0.6-0.1c-0.2,0-0.3,0-0.5,0.1c-0.2,0-0.3,0.1-0.4,0.1l0.2-0.6c0.4-0.1,0.8-0.3,1.1-0.4
		c0.4-0.1,0.7-0.1,1-0.1c0.6,0,1,0.1,1.3,0.4c0.3,0.2,0.5,0.6,0.5,0.9c0,0.1,0,0.2,0,0.4c0,0.2-0.1,0.4-0.1,0.6l-0.6,1.8
		c0,0.1-0.1,0.3-0.1,0.5s-0.1,0.3-0.1,0.4c0,0.2,0.1,0.4,0.2,0.5c0.1,0.1,0.3,0.1,0.6,0.1c0.1,0,0.3,0,0.5-0.1
		C48.4,96.9,48.5,96.9,48.6,96.8z M48.7,89.1c0,0.3-0.1,0.6-0.4,0.8c-0.3,0.2-0.6,0.3-1,0.3s-0.7-0.1-1-0.3
		c-0.3-0.2-0.4-0.5-0.4-0.8s0.1-0.6,0.4-0.8c0.3-0.2,0.6-0.3,1-0.3s0.7,0.1,1,0.3S48.7,88.8,48.7,89.1z"/>
	<path class="st22" d="M72.9,135.2c0,0-4.5,6.8-10,10h20C82.9,145.2,77.1,142,72.9,135.2z"/>
	<path class="st23" d="M97.9,135.2c0,0-4.5,6.8-10,10h20C107.9,145.2,102.1,142,97.9,135.2z"/>
	<g>
		<g>
			<path class="st8" d="M167.5,25.5h-12.4c-0.4,0-0.7,0.3-0.7,0.7v2.1c-0.5,0.1-0.9,0.3-1.1,0.5c-0.4,0.4-0.6,0.9-0.6,1.4
				s0.2,1,0.6,1.3c-0.4,0.4-0.6,0.8-0.6,1.3s0.2,1,0.6,1.3c-0.4,0.4-0.6,0.8-0.6,1.3s0.2,1,0.6,1.3c-0.4,0.4-0.6,0.8-0.6,1.3
				c0,0.8,0.6,1.7,1.7,1.8v2c0,0.4,0.3,0.7,0.7,0.7h12.4c0.4,0,0.7-0.3,0.7-0.7V26.2C168.1,25.8,167.8,25.5,167.5,25.5z M154.4,38.8
				c-0.5-0.1-0.6-0.4-0.6-0.7c0-0.2,0.1-0.4,0.3-0.6c0.1-0.1,0.2-0.2,0.4-0.2C154.4,37.3,154.4,38.8,154.4,38.8z M154.4,36.1
				c-0.5-0.1-0.6-0.4-0.6-0.7c0-0.2,0.1-0.4,0.3-0.6c0.1-0.1,0.2-0.2,0.4-0.2C154.4,34.6,154.4,36.1,154.4,36.1z M154.4,33.5
				c-0.5-0.1-0.6-0.4-0.6-0.7c0-0.2,0.1-0.4,0.3-0.6c0.1-0.1,0.2-0.2,0.4-0.2C154.4,32,154.4,33.5,154.4,33.5z M154.4,30.8
				c-0.5-0.1-0.6-0.4-0.6-0.7c0-0.2,0.1-0.4,0.3-0.6c0.1-0.1,0.2-0.2,0.4-0.2C154.4,29.3,154.4,30.8,154.4,30.8z M166.8,41.2h-11.1
				v-3.9c0.4,0.2,0.6,0.6,0.6,1.1c0,0.3,0.2,0.5,0.5,0.5s0.5-0.2,0.5-0.5c0-1.1-0.7-2-1.7-2.2v-1.5c0.4,0.2,0.6,0.6,0.6,1.1
				c0,0.3,0.2,0.5,0.5,0.5s0.5-0.2,0.5-0.5c0-1.1-0.7-2-1.7-2.2V32c0.4,0.2,0.6,0.6,0.6,1.1c0,0.3,0.2,0.5,0.5,0.5s0.5-0.2,0.5-0.5
				c0-1.1-0.7-2-1.7-2.2v-1.5c0.4,0.2,0.6,0.6,0.6,1.1c0,0.3,0.2,0.5,0.5,0.5s0.5-0.2,0.5-0.5c0-1.1-0.7-2-1.7-2.2v-1.4h11.1
				L166.8,41.2L166.8,41.2z"/>
			<path class="st8" d="M164.1,39c0,0.1,0.1,0.1,0.2,0l1.5-0.9c0.1,0,0.1-0.1,0-0.2l-0.5-0.9l-1.7,1L164.1,39z"/>
			<path class="st8" d="M163.4,37.8l1.7-1l-3.2-5.6c0-0.1-0.1-0.1-0.2-0.2l-1.2-0.6c-0.1-0.1-0.3,0-0.3,0.2l-0.1,1.3
				c0,0.1,0,0.2,0.1,0.2L163.4,37.8z M160.6,31.5l0.4-0.2l0.3,0.2l-0.8,0.5L160.6,31.5z"/>
		</g>
	</g>
	<g>
		<g>
			<path class="st9" d="M167.5,45.5h-12.4c-0.4,0-0.7,0.3-0.7,0.7v2.1c-0.5,0.1-0.9,0.3-1.1,0.5c-0.4,0.4-0.6,0.9-0.6,1.4
				s0.2,1,0.6,1.3c-0.4,0.4-0.6,0.8-0.6,1.3s0.2,1,0.6,1.3c-0.4,0.4-0.6,0.8-0.6,1.3s0.2,1,0.6,1.3c-0.4,0.4-0.6,0.8-0.6,1.3
				c0,0.8,0.6,1.7,1.7,1.8v2c0,0.4,0.3,0.7,0.7,0.7h12.4c0.4,0,0.7-0.3,0.7-0.7V46.2C168.1,45.8,167.8,45.5,167.5,45.5z M154.4,58.8
				c-0.5-0.1-0.6-0.4-0.6-0.7c0-0.2,0.1-0.4,0.3-0.6c0.1-0.1,0.2-0.2,0.4-0.2C154.4,57.3,154.4,58.8,154.4,58.8z M154.4,56.1
				c-0.5-0.1-0.6-0.4-0.6-0.7c0-0.2,0.1-0.4,0.3-0.6c0.1-0.1,0.2-0.2,0.4-0.2C154.4,54.6,154.4,56.1,154.4,56.1z M154.4,53.5
				c-0.5-0.1-0.6-0.4-0.6-0.7c0-0.2,0.1-0.4,0.3-0.6c0.1-0.1,0.2-0.2,0.4-0.2C154.4,52,154.4,53.5,154.4,53.5z M154.4,50.8
				c-0.5-0.1-0.6-0.4-0.6-0.7c0-0.2,0.1-0.4,0.3-0.6c0.1-0.1,0.2-0.2,0.4-0.2C154.4,49.3,154.4,50.8,154.4,50.8z M166.8,61.2h-11.1
				v-3.9c0.4,0.2,0.6,0.6,0.6,1.1c0,0.3,0.2,0.5,0.5,0.5s0.5-0.2,0.5-0.5c0-1.1-0.7-2-1.7-2.2v-1.5c0.4,0.2,0.6,0.6,0.6,1.1
				c0,0.3,0.2,0.5,0.5,0.5s0.5-0.2,0.5-0.5c0-1.1-0.7-2-1.7-2.2V52c0.4,0.2,0.6,0.6,0.6,1.1c0,0.3,0.2,0.5,0.5,0.5s0.5-0.2,0.5-0.5
				c0-1.1-0.7-2-1.7-2.2v-1.5c0.4,0.2,0.6,0.6,0.6,1.1c0,0.3,0.2,0.5,0.5,0.5s0.5-0.2,0.5-0.5c0-1.1-0.7-2-1.7-2.2v-1.4h11.1
				L166.8,61.2L166.8,61.2z"/>
			<path class="st9" d="M164.1,59c0,0.1,0.1,0.1,0.2,0l1.5-0.9c0.1,0,0.1-0.1,0-0.2l-0.5-0.9l-1.7,1L164.1,59z"/>
			<path class="st9" d="M163.4,57.8l1.7-1l-3.2-5.6c0-0.1-0.1-0.1-0.2-0.2l-1.2-0.6c-0.1-0.1-0.3,0-0.3,0.2l-0.1,1.3
				c0,0.1,0,0.2,0.1,0.2L163.4,57.8z M160.6,51.5l0.4-0.2l0.3,0.2l-0.8,0.5L160.6,51.5z"/>
		</g>
	</g>
</g>
<path id="XMLID_1014_" class="st8" d="M147.5,38.3H147v-5.4c0-0.3-0.2-0.5-0.5-0.5h-2.9V27c0-0.3-0.2-0.5-0.5-0.5h-6.9
	c-0.3,0-0.5,0.2-0.5,0.5v5.4h-2.9c-0.3,0-0.5,0.2-0.5,0.5v5.4h-0.5c-0.3,0-0.5,0.2-0.5,0.5v3.1c0,0.3,0.2,0.5,0.5,0.5h2.1
	c0.3,0,0.5-0.2,0.5-0.5v-0.5h3.8v0.5c0,0.3,0.2,0.5,0.5,0.5h2.1c0.3,0,0.5-0.2,0.5-0.5v-0.5h3.8v0.5c0,0.3,0.2,0.5,0.5,0.5h2.1
	c0.3,0,0.5-0.2,0.5-0.5v-3.1C148,38.5,147.8,38.3,147.5,38.3z M146,33.4v4.9h-5.9v-4.9H146z M136.6,27.5h5.9v4.9h-5.9V27.5z
	 M133.1,33.4h5.9v4.9h-5.9V33.4z M147,41.4h-1v-0.5c0-0.3-0.2-0.5-0.5-0.5h-4.9c-0.3,0-0.5,0.2-0.5,0.5v0.5h-1v-0.5
	c0-0.3-0.2-0.5-0.5-0.5h-4.9c-0.3,0-0.5,0.2-0.5,0.5v0.5h-1v-2.1H147V41.4z"/>
<path id="XMLID_1_" class="st24" d="M147.5,57.3H147v-5.4c0-0.3-0.2-0.5-0.5-0.5h-2.9V46c0-0.3-0.2-0.5-0.5-0.5h-6.9
	c-0.3,0-0.5,0.2-0.5,0.5v5.4h-2.9c-0.3,0-0.5,0.2-0.5,0.5v5.4h-0.5c-0.3,0-0.5,0.2-0.5,0.5v3.1c0,0.3,0.2,0.5,0.5,0.5h2.1
	c0.3,0,0.5-0.2,0.5-0.5v-0.5h3.8v0.5c0,0.3,0.2,0.5,0.5,0.5h2.1c0.3,0,0.5-0.2,0.5-0.5v-0.5h3.8v0.5c0,0.3,0.2,0.5,0.5,0.5h2.1
	c0.3,0,0.5-0.2,0.5-0.5v-3.1C148,57.5,147.8,57.3,147.5,57.3z M146,52.4v4.9h-5.9v-4.9H146z M136.6,46.5h5.9v4.9h-5.9V46.5z
	 M133.1,52.4h5.9v4.9h-5.9V52.4z M147,60.4h-1v-0.5c0-0.3-0.2-0.5-0.5-0.5h-4.9c-0.3,0-0.5,0.2-0.5,0.5v0.5h-1v-0.5
	c0-0.3-0.2-0.5-0.5-0.5h-4.9c-0.3,0-0.5,0.2-0.5,0.5v0.5h-1v-2.1H147V60.4z"/>
<path class="st25" d="M74.2,107c-5.5,0-10,4.5-10,10c0,5.5,4.5,10,10,10c5.5,0,10-4.5,10-10C84.2,111.5,79.7,107,74.2,107z
	 M79,114.2l-0.9,0.9l-1.9-1.9l-0.7,0.7l1.9,1.9l-4.7,4.7l-1.9-1.9l-0.7,0.7l1.9,1.9l-0.5,0.5l0,0c-0.1,0.1-0.1,0.1-0.2,0.2l-1.8,0.4
	c0,0-0.1,0-0.1,0c-0.1,0-0.2,0-0.3-0.1c-0.1-0.1-0.1-0.2-0.1-0.3l0.4-1.8c0-0.1,0.1-0.2,0.2-0.2l0,0l7.6-7.6c0.1-0.1,0.3-0.1,0.4,0
	l1.5,1.5C79.1,113.9,79.1,114.1,79,114.2z"/>
<path class="st9" d="M100.2,115.7c-0.1-0.1-0.3-0.2-0.5-0.2h-5.7V113c0-0.6,0.2-1,0.6-1.4c0.4-0.4,0.9-0.6,1.4-0.6s1,0.2,1.4,0.6
	c0.4,0.4,0.6,0.9,0.6,1.4c0,0.1,0,0.3,0.1,0.4c0.1,0.1,0.2,0.1,0.4,0.1h0.5c0.1,0,0.3,0,0.4-0.1c0.1-0.1,0.1-0.2,0.1-0.4
	c0-1-0.3-1.8-1-2.5c-0.7-0.7-1.5-1-2.5-1s-1.8,0.3-2.5,1c-0.7,0.7-1,1.5-1,2.5v2.5h-0.2c-0.2,0-0.4,0.1-0.5,0.2
	c-0.1,0.1-0.2,0.3-0.2,0.5v4.5c0,0.2,0.1,0.4,0.2,0.5c0.1,0.1,0.3,0.2,0.5,0.2h7.5c0.2,0,0.4-0.1,0.5-0.2c0.1-0.1,0.2-0.3,0.2-0.5
	v-4.5C100.4,116,100.3,115.8,100.2,115.7z"/>
<path class="st9" d="M106,114.9h-2.6v1.5h2.6V114.9z M108.5,121.4h1.5v-2.6h-1.5V121.4z M112.3,114.9v1.5h2.6v-1.5H112.3z
	 M108.5,112.5h1.5v-2.6h-1.5V112.5z M104.6,119.2l1,1l1.9-1.9l-1-1L104.6,119.2z M104.6,112.1l1.9,1.9l1-1l-1.9-1.9L104.6,112.1z
	 M110.9,118.4l1.9,1.9l1-1l-1.9-1.9L110.9,118.4z"/>
<path class="st9" d="M125.5,115.5l4.5-4.5c0.3-0.3,0.3-0.8,0-1.1c-0.3-0.3-0.8-0.3-1.1,0l-4.5,4.5l-4.5-4.5c-0.3-0.3-0.8-0.3-1.1,0
	c-0.3,0.3-0.3,0.8,0,1.1l4.5,4.5l-4.5,4.5c-0.3,0.3-0.3,0.8,0,1.1c0.1,0.1,0.3,0.2,0.5,0.2c0.2,0,0.4-0.1,0.5-0.2l4.5-4.5l4.5,4.5
	c0.1,0.1,0.3,0.2,0.5,0.2s0.4-0.1,0.5-0.2c0.3-0.3,0.3-0.8,0-1.1L125.5,115.5z"/>
</svg>
